<svg xmlns="http://www.w3.org/2000/svg" fill="#FFF" viewBox="0 0 512 512"><path d="M48 256a208 208 0 0 1 366-135 24 24 0 1 0 36-32A255 255 0 0 0 0 256v40a24 24 0 1 0 48 0v-40zm459-53c-3-13-16-21-29-18s-21 15-18 28c3 14 4 28 4 43v40a24 24 0 1 0 48 0v-40c0-18-2-36-5-53zM256 80c-19 0-37 3-54 9-16 5-19 23-9 35 7 9 19 11 30 8a128 128 0 0 1 161 124v25c0 25-1 50-4 75-2 15 9 28 24 28 12 0 22-9 23-20 3-28 5-55 5-83v-25c0-97-79-176-176-176zm-105 69c-9-11-26-12-34-1-23 30-37 67-37 108v25c0 24-3 48-8 72-3 15 8 31 24 31 11 0 20-7 22-17 7-28 10-57 10-86v-25c0-27 9-52 23-73 7-10 8-25 0-34zm105 11c-53 0-96 43-96 96v25c0 36-5 71-14 106-4 14 7 29 22 29 9 0 18-6 20-15 11-39 16-80 16-120v-25a52 52 0 0 1 104 0v25c0 36-3 72-10 108-3 14 7 27 21 27 11 0 19-7 21-17 8-39 12-78 12-118v-25c0-53-43-96-96-96zm24 96a24 24 0 1 0-48 0v25c0 60-11 119-32 175l-6 15c-5 13 1 27 13 31s27-1 31-13l6-16c24-61 36-126 36-192v-25z"/></svg>
