<svg xmlns="http://www.w3.org/2000/svg" width="791.3" height="702.8" viewBox="0 0 791.3 702.8"><path stroke="black" stroke-width="5" fill="#ffcc00" d="M416.2 660.6c33.4 15.4 46 3.5 46 3.5l-64.1-39s4.5-23.3-25.5-35.7c22.3-5.7 62.8 22.9 102.7 58.7 40 35.8 91.4 31.1 104.3 22.8-23.8 37.4-175.9 48.3-225.2-2.6 30.6 3.7 55 5.7 61.8-7.7m71.5-124.2c6.8-1.6 17.1-6.2 20 5.2 12 7.5 24.9 30.6 8.3 35.8 7.1-8.5 1.6-20.5-11.4-22.3-6 3.9-1 4.2-12.5 2-12 2.4-5.4 4.5-2.3 7.6 3.1 3.1 15.5 6 11.5 13.4 5.2 6.5 15 24.7-1 30.2 5.2-7.4 8.4-19.7-11.9-27.5-5.5 4.8-25-5.2-23.5-18.7s.2-16.6-16.5-14.7c-24.3 2.8-7.7 15-20.9 12.9-10.6 8-12.2 16.6-10.1 19.7-6.8-9-.8-23.9-.8-23.9s-5.4-24.9 8.6-21.8c14 3.2 12.6-10.8 12.7-13.2h-1.2c11.6-19-10.4-25.5-37.7-31.1-10.8-2.3-24.4 3.7-42.8-4.6 55.5-10.5 23.2-47 20.5-56.3 16.8-8.4 47.8 2.2 66.8 22.8 0 9.4-11.3 12.1-17.5 20.4 9.3 17.7 31.1 37.7 30.6 48.8-.3 5.2 22 17.5 31.1 15.3M557 85.1s12-.4 16.4 9.4c0 0-17.5-1-27.7 10-2.1-4 11.3-19.4 11.3-19.4M146.8 679.9c117-33.9 176.8-51.1 243.7-37.5 9.8 2 41.8 28.8 66.2 21.5 0 0-42.8-23.8-63.4-33.5C262.3 596 53.5 696.2 44 614.5c-8.8-76.4 184-56 163.5-115.6-15-43.1-17.1-54.6-2.6-76.6 8.5-12.8 22-23 38-31.2.7 12.3 9.3 27.7 32.3 41.5-8.3-36.8 14-59.7 53.5-57.6 42.3 2.4 40.9 50.4 40.9 50.4 52.4-18.2 61.6 22 112.5 32.4 6.5 1.3 13 4.6 18.1 3-8.7-4.7-8.8-21.3-6.6-25.1.7 0 3.5 3 6.7 6.8-1.3 17.7 21 28.7 39.1 34.2 14.8 4.5 22.8 23.1 25.6 35.9.6 3 1 5.8 1.2 8a41.9 41.9 0 0 1 5.2 20.4c-8.8-1.7-13.6 4.2-14.7 12.7-4.3 1-13.3 11.1-6.8 19.3 1.7-11 11.5-13 14.3-11 2.3-2.8 4.1-7.3 9.4-2.7 4.7 4-1.5 5.8-3.6 10-5.6 10.8 4.4 10 11.5 14.8 8.7 6 13.8 18.1 14.2 28.7 10-7.4-5.2-29.3-.5-31.5 3-1.5 4.1-4.7 2.2-7.2-4-5.3-14.7-8.2-8.1-10.5 5.3-.6 13.6 4.2 16.6 8.8 1.9 3 8.2 10.8 12.7 6.4 13.8 2.5 22.9 16.4 17 27 15.7-12.3 3-27.7-5.4-36 1.1-10.6-11.4-9.6-16.4-8.7-7.1 1.3-5.4-10.7.9-8.8 9.4 2.9 20.5 4.9 20.3-5.9 7.6-3.3 16.9 3.1 19 11.5 3.2-15.6-9.5-20.2-19.8-21.4-6.6-8-18.3 5-26 4.8-3.2.5-15-4.6-17-5.4 2-6.2-4.7-10.6-7.8-14.7-6-8-3.8-16.7-1.7-25.5 1.8-7.5-.8-13-6.5-18.2 1-17.3 12.8-32.9 3.2-56.4 0-1 0-1.6.3-1.6.6 0 4.3 2.7 5.2 13.4 4.3-4.5 7.2-9.3 8.1-14.5a118 118 0 0 0 12.2-8.3c-22-18.9-37.3-21.8-44.7-24.6 12.4-5.1 41.6 14.3 50 20.2a71.4 71.4 0 0 0 24-41C608 349 592 348.4 584.1 346.8c11.5-7 42.1 6.2 50.4 10.1 4.3-14.4 4.2-29-7-41.8-25.6-9.5-40.3-7.4-48-7.6 8.5-7.5 32.4-3 45 .2-1.4-17.4-13-31.5-25-42-21.5-.5-33 4.4-39.5 6 5-7.9 22.2-10.5 35.3-11.4-2.9-13.6-17.7-28.1-27-29.2-23-.3-28.4 6.3-35.4 8.3 5-8.5 20-12.2 30.4-13.7-1.2-10.4-16.8-19.8-21-26.3-21.8 1.8-25.3 6.3-32 9.1 4.1-9.1 18.6-13.1 28.5-14.8-5.5-10.1-3.8-13.3-3.8-13.3-21.6-3.6-26.7-10.6-30.7-18.6-8.4-16.6 9.2-31.6 9.2-31.6l5.9 2c-23.9 15.3-3.5 45.7 24.5 43 28-2.8 47.8 19.8 58.7 23.2 11 3.4 8.4 14.5 1.4 21 11.4-3.5 14-9 14.1-20.6 0-3.1 2.8-6.8 4-11.4 1.3-4.8-.8-8.8-5-12.2a8.7 8.7 0 0 1-5.2 2.9c-8.8 1.2-8.6-4.5-8.6-4.5s2.7-.9 6-3c-18.1-8.4-49.3-11.8-57.2-15.1-12-5-15.9-15.5 18.4-31.6 34.2-16.1 71 10.9 71 10.9 7.3 3 7.5 12.2 1.3 20.1 0 0 .4 1 2.2.4a15.4 15.4 0 0 0 10-15.8c5.8.5 13-.8 9.3-15.9 19-19.7-5.2-27-5.2-27 3.4-12.7-11-29.4-28-26.8 22.3 9.2 2 21.6 2 21.6s-44.5.2-51.5-5.7c-6.9-5.9-31-23.7-51.2-13.3 12.1 7.3 9.2 15.2.4 16 0 0-10.5.4-18.7-10.3-14.5-19-27.3-43.4-59.2-39 17 6.7 44 29.5 34 54-10 24.6-67.9-22-65.8-62.9-14.9 26.6 1.4 85.4 68.5 102-39.4 24-5.3 78.6 11.3 124.3-3.6 17.4-19 18.8-30.6 13.2-20.5-10-15.3-15.6-22.3-20-3.1 8-3.4 46.2 39.5 49.3 14.1 1 12.3 10.2 3.6 17.1-20.4 16.1-47.7 15.3-72.3 15.2-29.3 0-58.3-2-87.5-4.6-28.7-2.6-64.4-5.8-90.8 9.2l-1 .5a87.5 87.5 0 0 1-71.6-67.1 73.4 73.4 0 0 0 28 71.6 133.7 133.7 0 0 1-53.3-18c12.7 19 28.1 31.1 36.7 37l-4.5 3c-12.5-1.3-32.4-4-42.3-9.2a131.8 131.8 0 0 0 26.2 22.7 68.2 68.2 0 0 0-20.2 70.5c9.9 39.3 17.6 57.6-22.4 69.8a452.2 452.2 0 0 0-82.5 35C-32 587.5-5 723.8 146.8 680m474-527.4c3 5.9 1.3 17.3-3.8 22.7a38.5 38.5 0 0 0-7.7-4.6 23.3 23.3 0 0 0 11.4-18.1M276 470.3c-14 11.4-31.2.5-33.7-7.3-3.2 22.3 17.6 23.9 17.6 23.9s-9.3 18.1-7.8 22.8c-1 10.4 18 29-.1 30.1-9.1.5-10-12.5-20.8-3.8-4 3.4-17.6-2.6-23.7 8.2 7.2-3.7 17.3-2.2 20 .8 1 14.6 21.5 3.5 26.4 10 2.6 4.9-14.5 21.1-2.6 26.3 1.8 10-3.6 17.4-9.8 19.2 8.3 2.9 19.9-8.6 20.1-13 6-.8 10.2-10.3 5.6-15.8-1.6-9-.8-13.5 2-11.7 2.9 1.9 2.9 16.6 9.1 19.5 6.2 2.9 4 14.8 12.7 13.7 8.9 5.2 13.6 13 7.8 21.3 10.4-2.4 8.7-21.8-1.4-30 2.5-12.5 2.1-17.4-6.5-20.1-4.1-1-2.2-2.8-1.5-3 9.9-4.5 18.6.6 19.4-5 7.7 1.7 16 3.8 15.6 14.2 10.4-7.3-3.8-25-14.2-25.3-5.7-9.3-10.2-3.1-20.1.9-6 2.4-21 1-18.8-4.3 3.1-.5 3.6-20.8 0-24.4 2-.5 12.5-9.4 16.1-25.4 26-9.4 59.7-37.7 74.7-59.5 1-8.9-.7-45-26.3-50-12.1-2.4-36.6-3.4-49.9 16-11 16 4 60.2-10 71.7m181.5-258s-1.7 15.5-11.7.3c-8-12.3-65.4-92.3-152.4-125.3 21-14 22-44.3 15.5-60.7 48.5 29.5 123.5 85.3 148.6 185.6M290.1 95.5c54.2 25.7 111.3 70 142.4 130.2 3.2 6.3.8 14.6-11.9 6.4-18.1-11.6-74.3-56.2-154.5-79.3 22.4-9.3 29.8-32.7 24-57.3m-28.6 65.2c52.3 18.4 111.7 46.5 143 80 6.1 6.4-1.6 8-8.8 5.3-10.2-4-82.3-20.5-144-17.2 15.8-11.7 15.5-39.6 9.8-68M405 261c42.4 15.6-60 35.2-127.5 42 3.5-13-19-36-35.9-66 51.9.6 124.6 9.7 163.4 24M265.4 0c.9 2.8 11.6 8.3 27.7 17.4 8.5 15 10 49.7-12.2 65.5a208.2 208.2 0 0 0-56-9.7c16 3.2 33.8 8.7 52.2 16.5 7.1 25.3.4 50-22 60a350.5 350.5 0 0 0-73.4-10.8c16.5 2.7 41 8.9 68.4 18 7 31.5 7.7 62.7-12.6 73a146 146 0 0 0-42.6 10.4c9-2 22.2-3 37.8-3.2 18.2 30.8 41.9 54 35.7 66.7a312.2 312.2 0 0 1-33.8 1.4c14.6 11.4 153.3-4.2 188.6-11 23.9 16.1 8 21.1-10 20.8-14.7-.3-107.6-5.8-124 1 31.2.6 87.1 5.1 122 6.7 35 1.6 63.9-7.3 68.4-12.1-37.4 5.5-55.4-58.2-35.6-66.2 19.7-8 22 19 33.9 19.3C485 215 446.7 68 265.4 0m363.7 158.6c-21.4-25-72-9.6-73.4-10-10.4-3.8 1.8-11 5.5-13 31.2-13.2 58-4.9 75 17.6 15 20 50.5 32.7 70.3 27.7-15.1 14.6-56.1 2.6-77.4-22.3m27.1 253.1c11.7-1.8 12.2-14.9 23-15.3 10.7-.4 2.4-8.1 16.8-8 14.4.2-2.3 23.5 12.4 27.5-3.9 10 4.6 28.4 22.7 29.8-6.4-2.4-17-19.9-9.5-28.6 9.9-3.8 7.2-16.2-.8-26.2-7-8.9 1.7-23 20.4-24.6C760 364.6 752 340 759 334.9c7-5 21.7.2 26.3 11 2.6-5.4-7-17.7-11.8-19.4-.9-8.9-16.6-10-22.3.1-.5 1.7-3 .7-3.8-.2-4.8-12.5 18.7-19.8 15.2-28.8 4.3-7.8 15-13.7 28.8-4.1-7.5-14.6-29.7-13-40.5-2.5-13.6 1-4.4 11.5-17.8 19.6-7.9-2.4-6.5-20.7.6-26.7-9 .3-19.2 22.7-12.4 34.1-12 8.4-3.9 16.9-2.1 26.8 1.7 9.9-2.6 28-15.8 30.7-32.8 6.5-51.7-26.7-62-23 0 0-2.8 33.5-19.8 45.8 5.9 12.4 14.4 10.1 14.4 10.1s-2.6 30.2 18.2 35.6c-8.8-6.9-6-31 2-32.3"/></svg>
